<svg
    xmlns="http://www.w3.org/2000/svg"
    viewBox="0 0 92.578 80.225"
    fill="none"
    stroke="#050236"
    stroke-width="0.5mm"
    stroke-linecap="round"
    fill-rule="evenodd">
    <path d="M 44.238 25.196
    Q 36.133 31.788 31.885 44.776
    Q 29.639 51.807 29.639 59.034
    Q 29.639 71.68 37.891 71.68
    Q 42.09 71.68 46.582 68.213
    Q 51.074 64.747 54.663 59.205
    Q 58.252 53.663 60.571 46.045
    Q 62.891 38.428 62.891 30.811
    Q 62.891 20.069 59.082 15.528
    Q 55.273 10.987 46.289 10.987
    Q 41.309 10.987 35.547 12.061
    Q 29.785 13.135 25.806 14.429
    Q 21.826 15.723 18.652 16.797
    Q 15.479 17.872 14.99 17.872
    Q 13.184 17.872 13.184 16.407
    Q 13.184 15.235 15.601 13.355
    Q 18.018 11.475 22.314 9.4
    Q 26.611 7.325 31.836 5.518
    Q 43.994 1.319 55.615 1.319
    Q 77.93 1.319 87.158 14.307
    Q 92.578 21.973 92.578 33.252
    Q 92.578 41.797 89.6 49.292
    Q 86.621 56.788 81.299 62.403
    Q 75.977 68.018 68.799 72.071
    Q 54.297 80.225 35.938 80.225
    Q 0 80.225 0 55.665
    Q 0 48.78 2.979 42.457
    Q 5.957 36.133 10.815 31.47
    Q 15.674 26.807 21.729 23.292
    Q 34.033 16.26 46.436 16.26
    Q 48.389 16.26 49.243 16.968
    Q 50.098 17.676 50.098 18.409
    Q 50.098 19.141 49.878 19.654
    Q 49.658 20.167 49.023 20.85
    Q 48.389 21.534 47.9 22.022
    Q 46.68 23.096 44.238 25.196 Z"/>
</svg>